<svg xmlns="http://www.w3.org/2000/svg" viewBox="0 0 512 512" fill="currentColor">
  <circle cx="235" cy="88" r="40" />
  <path d="M235 134c-14 0-25 11-25 25v95c0 13 8 24 20 29l58 26 15 120c2 15 15 25 30 23 15-2 25-15 23-30l-16-128c-2-10-9-19-19-23l-56-25v-87c0-14-11-25-25-25z" />
  <path d="M215 186l-83 73c-11 10-12 27-2 38 10 11 27 12 38 2l85-75c11-10 12-27 2-38-10-11-27-12-38-2z" />
  <path d="M274 194l71 58c12 9 29 7 38-5s7-29-5-38l-73-60c-12-9-29-7-38 5s-7 29 5 38z" />
  <path d="M174 288l-92 116c-9 12-7 29 5 38 12 9 29 7 38-5l90-113c9-12 7-29-5-38-12-9-29-7-38 5z" />
  <path d="M319 286l107 88c12 9 29 8 38-4 9-12 8-29-4-38l-106-87c-12-9-29-8-38 4-9 12-8 29 4 38z" />
</svg>
